<?xml version="1.0" encoding="UTF-8" standalone="no"?>
<!DOCTYPE svg PUBLIC "-//W3C//DTD SVG 1.1//EN" "http://www.w3.org/Graphics/SVG/1.1/DTD/svg11.dtd">
<svg xmlns="http://www.w3.org/2000/svg" version="1.1" viewBox="0.00 0.00 567.00 185.00">
<path fill="#000000" d="
  M 166.44 103.73
  L 166.44 106.48
  A 2.03 2.02 -89.9 0 1 164.42 108.50
  L 160.89 108.50
  Q 158.78 108.50 158.78 106.39
  L 158.77 49.00
  Q 158.77 46.77 161.00 46.76
  L 164.22 46.74
  Q 166.72 46.73 166.71 49.22
  L 166.70 68.07
  A 0.30 0.30 0.0 0 0 167.22 68.27
  Q 172.21 62.79 179.63 62.48
  Q 193.76 61.89 197.79 74.75
  C 200.45 83.26 200.07 96.11 194.56 102.99
  C 188.07 111.11 174.07 111.53 167.05 103.50
  A 0.35 0.35 0.0 0 0 166.44 103.73
  Z
  M 170.13 73.01
  C 164.77 79.10 164.98 96.51 172.82 100.90
  C 178.85 104.28 187.62 102.43 189.97 95.24
  C 192.03 88.98 192.47 78.05 187.77 72.76
  C 183.36 67.80 174.30 68.28 170.13 73.01
  Z"
/>
<path fill="#000000" d="
  M 240.71 68.00
  L 240.70 49.28
  Q 240.70 46.76 243.22 46.76
  L 246.15 46.75
  Q 248.55 46.74 248.55 49.15
  L 248.55 106.35
  Q 248.55 108.49 246.40 108.50
  L 243.11 108.50
  A 2.14 2.13 89.9 0 1 240.97 106.36
  L 240.96 103.52
  Q 240.96 102.72 240.44 103.33
  Q 235.54 109.10 227.23 109.22
  Q 213.86 109.42 209.88 97.25
  Q 205.94 85.21 209.61 74.58
  C 214.28 61.06 230.44 58.60 240.19 68.22
  Q 240.71 68.73 240.71 68.00
  Z
  M 228.71 69.37
  C 215.11 68.69 214.50 84.53 216.92 93.76
  Q 218.77 100.81 225.08 102.17
  Q 236.32 104.60 239.60 93.46
  C 242.39 84.02 241.25 69.99 228.71 69.37
  Z"
/>
<path fill="#000000" d="
  M 332.32 71.52
  Q 335.77 71.19 336.87 74.39
  Q 337.04 74.87 337.55 74.81
  C 345.50 73.93 338.84 88.96 337.69 92.08
  C 336.87 94.28 337.12 96.13 337.08 98.43
  Q 337.08 99.00 336.51 99.00
  L 320.00 99.00
  A 0.51 0.51 0.0 0 1 319.49 98.49
  L 319.45 94.19
  A 1.06 1.05 -68.2 0 0 319.13 93.43
  C 316.94 91.37 310.47 86.86 310.73 83.81
  Q 311.15 78.92 316.39 79.23
  Q 316.92 79.27 316.84 78.74
  L 313.95 60.32
  A 2.76 2.76 0.0 0 1 316.19 57.17
  L 316.77 57.06
  Q 320.08 56.46 320.55 59.79
  Q 321.53 66.65 322.81 73.50
  Q 323.72 78.40 324.66 73.51
  L 327.30 59.71
  A 3.19 3.18 10.2 0 1 330.95 57.18
  L 331.73 57.31
  A 2.56 2.55 10.0 0 1 333.82 60.29
  L 331.86 71.03
  Q 331.76 71.58 332.32 71.52
  Z"
/>
<path fill="#000000" d="
  M 117.72 89.05
  C 117.85 102.97 132.59 108.07 140.99 96.99
  Q 141.39 96.45 142.07 96.48
  L 147.78 96.71
  A 0.73 0.72 -85.9 0 1 148.47 97.51
  C 147.25 108.19 130.23 110.55 122.73 108.31
  C 108.27 103.98 106.20 80.74 113.91 70.07
  Q 119.37 62.50 129.74 62.54
  C 144.43 62.59 149.85 73.60 149.74 86.55
  A 1.97 1.97 0.0 0 1 147.77 88.50
  L 118.27 88.50
  Q 117.72 88.50 117.72 89.05
  Z
  M 117.98 82.46
  L 141.44 82.54
  A 0.33 0.33 0.0 0 0 141.77 82.21
  L 141.77 81.12
  A 12.32 11.88 -89.8 0 0 129.93 68.76
  L 129.57 68.76
  A 12.32 11.88 -89.8 0 0 117.65 81.04
  L 117.65 82.13
  A 0.33 0.33 0.0 0 0 117.98 82.46
  Z"
/>
<path fill="#000000" d="
  M 265.07 89.19
  C 265.64 102.70 279.74 108.18 288.20 97.28
  A 1.45 1.41 -76.7 0 1 289.02 96.76
  Q 292.15 96.03 295.23 96.93
  A 1.29 1.29 0.0 0 1 296.03 98.75
  Q 293.91 102.98 291.11 104.84
  C 282.98 110.24 270.98 111.42 263.56 104.30
  C 257.61 98.58 256.50 89.63 257.40 81.52
  C 258.95 67.51 269.66 59.82 282.93 63.23
  C 293.81 66.02 297.29 75.84 297.22 86.23
  Q 297.21 88.49 295.01 88.46
  Q 280.31 88.33 265.64 88.59
  Q 265.05 88.60 265.07 89.19
  Z
  M 265.67 82.61
  L 288.61 82.53
  A 0.62 0.62 0.0 0 0 289.23 81.91
  L 289.23 81.11
  A 12.38 11.88 89.8 0 0 277.31 68.77
  L 276.89 68.77
  A 12.38 11.88 89.8 0 0 265.05 81.19
  L 265.05 81.99
  A 0.62 0.62 0.0 0 0 265.67 82.61
  Z"
/>
<path fill="#000000" d="
  M 363.42 89.08
  C 363.49 96.05 367.64 102.42 374.99 103.00
  Q 380.85 103.47 385.22 98.75
  Q 386.92 96.93 388.34 96.58
  Q 391.11 95.92 393.83 97.08
  A 0.69 0.69 0.0 0 1 394.23 97.83
  C 392.73 106.61 380.07 109.81 373.00 109.09
  C 358.81 107.65 354.17 94.44 355.54 82.12
  C 356.79 70.85 363.17 62.76 374.98 62.54
  C 390.01 62.26 395.58 73.39 395.50 86.56
  A 1.95 1.95 0.0 0 1 393.55 88.50
  L 363.99 88.50
  Q 363.41 88.50 363.42 89.08
  Z
  M 363.73 82.48
  L 387.27 82.52
  A 0.31 0.31 0.0 0 0 387.58 82.21
  L 387.58 81.20
  A 12.40 11.87 -89.9 0 0 375.73 68.78
  L 375.31 68.78
  A 12.40 11.87 -89.9 0 0 363.42 81.16
  L 363.42 82.17
  A 0.31 0.31 0.0 0 0 363.73 82.48
  Z"
/>
<path fill="#000000" d="
  M 454.75 69.25
  C 447.61 70.83 446.78 78.70 454.26 80.69
  C 462.63 82.92 471.92 84.23 475.23 90.19
  C 478.71 96.48 476.12 103.43 469.83 106.53
  C 460.30 111.24 447.20 110.20 440.67 100.59
  Q 438.72 97.73 442.08 96.91
  L 442.57 96.79
  Q 445.94 95.97 448.16 98.63
  Q 453.77 105.34 464.35 101.85
  C 466.52 101.13 468.10 99.48 468.51 97.18
  C 469.30 92.72 466.01 91.26 462.15 90.18
  Q 455.98 88.44 449.81 86.68
  C 440.27 83.96 438.61 72.61 445.88 66.32
  C 453.61 59.64 470.28 61.82 474.94 71.67
  A 1.81 1.81 0.0 0 1 473.30 74.25
  L 469.26 74.24
  A 0.97 0.97 0.0 0 1 468.49 73.86
  Q 463.66 67.29 454.75 69.25
  Z"
/>
<path fill="#000000" d="
  M 494.61 88.93
  C 494.57 99.93 504.42 107.19 514.32 100.46
  C 517.98 97.98 518.10 95.05 524.00 96.79
  Q 525.99 97.37 525.00 99.54
  C 522.18 105.67 514.75 108.54 508.58 109.12
  C 490.97 110.77 484.70 95.21 486.88 80.48
  C 488.50 69.51 495.55 62.35 506.99 62.57
  C 521.45 62.85 526.92 73.88 526.55 86.76
  A 1.79 1.79 0.0 0 1 524.76 88.50
  L 495.04 88.50
  Q 494.61 88.50 494.61 88.93
  Z
  M 495.09 82.60
  L 518.01 82.56
  A 0.65 0.65 0.0 0 0 518.66 81.91
  L 518.66 81.19
  A 12.45 11.90 89.9 0 0 506.74 68.76
  L 506.32 68.76
  A 12.45 11.90 89.9 0 0 494.44 81.23
  L 494.44 81.95
  A 0.65 0.65 0.0 0 0 495.09 82.60
  Z"
/>
<path fill="#000000" d="
  M 81.97 96.70
  L 91.23 65.60
  Q 91.93 63.23 94.40 63.24
  L 96.89 63.25
  Q 99.58 63.26 98.80 65.83
  Q 92.59 86.17 86.46 106.25
  C 85.35 109.89 78.59 109.37 77.42 105.76
  Q 72.51 90.57 67.67 75.53
  A 0.27 0.27 0.0 0 0 67.16 75.53
  Q 62.26 90.75 57.35 106.02
  C 56.38 109.03 53.19 108.56 50.85 108.52
  A 2.40 2.39 -8.0 0 1 48.60 106.83
  L 36.05 65.95
  Q 35.22 63.25 38.05 63.24
  L 40.40 63.24
  Q 42.90 63.24 43.62 65.64
  L 52.95 96.99
  A 0.25 0.25 0.0 0 0 53.43 97.00
  L 63.76 64.49
  A 1.20 1.19 88.0 0 1 64.45 63.74
  C 66.44 62.93 70.58 62.56 71.43 65.39
  Q 76.19 81.12 81.38 96.70
  Q 81.69 97.64 81.97 96.70
  Z"
/>
<path fill="#000000" d="
  M 412.66 68.40
  Q 418.68 61.79 427.88 63.47
  Q 429.76 63.81 429.76 65.72
  L 429.75 68.46
  Q 429.75 70.55 427.66 70.52
  Q 425.54 70.49 422.50 70.64
  Q 412.95 71.11 412.76 80.76
  Q 412.52 93.28 412.54 105.76
  Q 412.54 108.50 409.80 108.50
  L 407.28 108.50
  Q 404.55 108.50 404.55 105.78
  L 404.55 65.13
  A 1.87 1.87 0.0 0 1 406.41 63.26
  L 410.37 63.24
  A 1.90 1.89 0.0 0 1 412.27 65.13
  L 412.26 68.25
  Q 412.26 68.83 412.66 68.40
  Z"
/>
<path fill="#000000" d="
  M 287.4504 148.0000
  A 11.21 9.33 90.1 0 1 278.1400 136.7737
  A 11.21 9.33 90.1 0 1 287.4896 125.5800
  A 11.21 9.33 90.1 0 1 296.8000 136.8063
  A 11.21 9.33 90.1 0 1 287.4504 148.0000
  Z
  M 287.4645 145.6200
  A 8.87 6.45 90.1 0 0 293.9300 136.7613
  A 8.87 6.45 90.1 0 0 287.4955 127.8800
  A 8.87 6.45 90.1 0 0 281.0300 136.7387
  A 8.87 6.45 90.1 0 0 287.4645 145.6200
  Z"
/>
<path fill="#000000" d="
  M 320.29 129.74
  C 318.49 127.87 315.54 127.40 313.33 128.64
  C 305.92 132.82 309.71 151.32 320.63 143.79
  A 1.00 1.00 0.0 0 1 322.01 145.21
  C 319.88 148.11 315.58 148.42 312.59 147.23
  C 305.18 144.31 304.54 130.82 311.51 126.98
  Q 317.20 123.83 321.79 128.16
  A 0.26 0.25 42.5 0 1 321.81 128.51
  L 320.73 129.73
  A 0.30 0.30 0.0 0 1 320.29 129.74
  Z"
/>
<path fill="#000000" d="
  M 333.5126 147.9894
  A 11.21 9.29 90.6 0 1 324.3405 136.6827
  A 11.21 9.29 90.6 0 1 333.7474 125.5706
  A 11.21 9.29 90.6 0 1 342.9195 136.8773
  A 11.21 9.29 90.6 0 1 333.5126 147.9894
  Z
  M 333.5600 145.6100
  A 8.88 6.43 90.0 0 0 339.9900 136.7300
  A 8.88 6.43 90.0 0 0 333.5600 127.8500
  A 8.88 6.43 90.0 0 0 327.1300 136.7300
  A 8.88 6.43 90.0 0 0 333.5600 145.6100
  Z"
/>
<path fill="#000000" d="
  M 181.98 127.76
  A 1.53 1.53 0.0 0 1 183.51 126.23
  L 188.35 126.23
  A 9.61 9.31 90.0 0 1 197.66 135.84
  L 197.66 138.04
  A 9.61 9.31 -90.0 0 1 188.35 147.65
  L 183.51 147.65
  A 1.53 1.53 0.0 0 1 181.98 146.12
  L 181.98 127.76
  Z
  M 185.17 128.91
  L 185.06 144.65
  A 0.70 0.70 0.0 0 0 185.75 145.35
  L 187.47 145.36
  A 7.59 7.38 -89.6 0 0 194.90 137.82
  L 194.92 135.86
  A 7.59 7.38 -89.6 0 0 187.59 128.22
  L 185.87 128.21
  A 0.70 0.70 0.0 0 0 185.17 128.91
  Z"
/>
<path fill="#000000" d="
  M 211.23 141.25
  L 204.50 141.25
  Q 204.04 141.25 203.89 141.69
  L 202.18 146.75
  Q 201.74 148.02 200.45 147.67
  L 200.14 147.58
  A 0.90 0.90 0.0 0 1 199.52 146.42
  L 206.00 127.51
  A 2.08 2.08 0.0 0 1 209.94 127.51
  L 216.35 146.25
  Q 216.77 147.48 215.46 147.56
  L 215.16 147.57
  A 1.60 1.58 78.5 0 1 213.57 146.50
  L 211.92 141.74
  Q 211.75 141.25 211.23 141.25
  Z
  M 204.94 138.13
  A 0.48 0.48 0.0 0 0 205.40 138.75
  L 210.46 138.75
  A 0.48 0.48 0.0 0 0 210.92 138.13
  L 208.39 129.72
  A 0.48 0.48 0.0 0 0 207.47 129.72
  L 204.94 138.13
  Z"
/>
<path fill="#000000" d="
  M 229.78 138.99
  L 234.06 146.45
  Q 234.62 147.44 233.49 147.52
  L 232.69 147.59
  A 1.66 1.64 72.9 0 1 231.13 146.75
  L 226.77 138.92
  Q 226.54 138.52 226.09 138.51
  L 223.27 138.46
  Q 222.49 138.45 222.49 139.23
  L 222.49 146.73
  A 0.96 0.95 0.3 0 1 221.52 147.68
  L 221.19 147.67
  Q 219.73 147.64 219.73 146.19
  L 219.74 127.48
  A 1.14 1.14 0.0 0 1 220.82 126.34
  C 224.31 126.13 230.85 125.45 233.07 128.67
  C 235.46 132.14 233.51 136.32 230.01 138.19
  Q 229.48 138.47 229.78 138.99
  Z
  M 222.50 129.58
  L 222.44 134.94
  A 1.32 1.32 0.0 0 0 223.74 136.27
  L 226.68 136.31
  A 4.60 3.90 0.7 0 0 231.33 132.46
  L 231.33 132.26
  A 4.60 3.90 0.7 0 0 226.78 128.31
  L 223.84 128.27
  A 1.32 1.32 0.0 0 0 222.50 129.58
  Z"
/>
<path fill="#000000" d="
  M 242.02 145.05
  L 251.35 145.10
  A 0.42 0.42 0.0 0 1 251.76 145.57
  L 251.56 147.19
  A 0.42 0.42 0.0 0 1 251.14 147.56
  L 239.34 147.58
  A 0.42 0.42 0.0 0 1 238.92 147.16
  L 238.96 126.69
  A 0.42 0.42 0.0 0 1 239.38 126.27
  L 250.84 126.29
  A 0.42 0.42 0.0 0 1 251.26 126.72
  L 251.24 127.85
  A 0.42 0.42 0.0 0 1 250.82 128.26
  L 242.07 128.25
  A 0.42 0.42 0.0 0 0 241.65 128.66
  L 241.56 134.82
  A 0.42 0.42 0.0 0 0 241.98 135.24
  L 249.24 135.13
  A 0.42 0.42 0.0 0 1 249.66 135.54
  L 249.68 137.11
  A 0.42 0.42 0.0 0 1 249.26 137.53
  L 242.06 137.56
  A 0.42 0.42 0.0 0 0 241.64 137.98
  L 241.60 144.63
  A 0.42 0.42 0.0 0 0 242.02 145.05
  Z"
/>
<path fill="#000000" d="
  M 266.79 128.27
  L 261.17 128.24
  A 0.42 0.42 0.0 0 1 260.75 127.83
  L 260.72 126.71
  A 0.42 0.42 0.0 0 1 261.14 126.28
  L 276.05 126.27
  A 0.42 0.42 0.0 0 1 276.47 126.71
  L 276.43 127.84
  A 0.42 0.42 0.0 0 1 276.01 128.24
  L 270.28 128.27
  A 0.42 0.42 0.0 0 0 269.86 128.69
  L 269.86 147.28
  A 0.42 0.42 0.0 0 1 269.43 147.70
  L 267.66 147.64
  A 0.42 0.42 0.0 0 1 267.25 147.22
  L 267.21 128.69
  A 0.42 0.42 0.0 0 0 266.79 128.27
  Z"
/>
<path fill="#000000" d="
  M 347.47 127.16
  A 0.89 0.89 0.0 0 1 348.35 126.26
  L 353.52 126.25
  A 9.22 9.04 -0.2 0 1 362.77 135.25
  L 362.79 138.53
  A 9.22 9.04 -0.2 0 1 353.60 147.61
  L 348.43 147.62
  A 0.89 0.89 0.0 0 1 347.53 146.74
  L 347.47 127.16
  Z
  M 350.30 129.16
  L 350.08 144.40
  A 0.98 0.98 0.0 0 0 351.05 145.39
  L 352.61 145.41
  A 7.59 7.44 -89.2 0 0 360.16 137.93
  L 360.18 135.91
  A 7.59 7.44 -89.2 0 0 352.85 128.22
  L 351.29 128.19
  A 0.98 0.98 0.0 0 0 350.30 129.16
  Z"
/>
<path fill="#000000" d="
  M 370.28 137.98
  L 370.25 144.65
  A 0.42 0.42 0.0 0 0 370.67 145.07
  L 379.86 145.10
  A 0.42 0.42 0.0 0 1 380.28 145.52
  L 380.30 147.14
  A 0.42 0.42 0.0 0 1 379.88 147.56
  L 368.01 147.55
  A 0.42 0.42 0.0 0 1 367.59 147.13
  L 367.60 126.67
  A 0.42 0.42 0.0 0 1 368.02 126.25
  L 379.50 126.29
  A 0.42 0.42 0.0 0 1 379.92 126.69
  L 379.97 127.80
  A 0.42 0.42 0.0 0 1 379.55 128.24
  L 370.71 128.28
  A 0.42 0.42 0.0 0 0 370.30 128.69
  L 370.23 134.69
  A 0.42 0.42 0.0 0 0 370.65 135.12
  L 378.07 135.22
  A 0.42 0.42 0.0 0 1 378.48 135.71
  L 378.25 137.19
  A 0.42 0.42 0.0 0 1 377.83 137.54
  L 370.70 137.56
  A 0.42 0.42 0.0 0 0 370.28 137.98
  Z"
/>
<rect fill="#000000" x="49.45" y="135.48" width="124.52" height="2.72" rx="0.27"/>
<rect fill="#000000" x="388.42" y="135.48" width="124.52" height="2.72" rx="0.27"/>
</svg>
